<svg xmlns="http://www.w3.org/2000/svg" xmlns:xlink="http://www.w3.org/1999/xlink" contentStyleType="text/css" height="672px" preserveAspectRatio="none" style="width:1955px;height:672px;background:#FFFFFF;" version="1.1" viewBox="0 0 1955 672" width="1955px" zoomAndPan="magnify"><defs/><g><!--cluster d77d5e503ad1439f585ac494268b351b--><g id="cluster_d77d5e503ad1439f585ac494268b351b"><polygon fill="none" points="1532,16,1542,6,1938,6,1938,196.08,1928,206.08,1532,206.08,1532,16" style="stroke:#181818;stroke-width:1.0;"/><line style="stroke:#181818;stroke-width:1.0;" x1="1928" x2="1938" y1="16" y2="6"/><line style="stroke:#181818;stroke-width:1.0;" x1="1532" x2="1928" y1="16" y2="16"/><line style="stroke:#181818;stroke-width:1.0;" x1="1928" x2="1928" y1="16" y2="206.08"/><text fill="#000000" font-family="sans-serif" font-size="14" font-weight="bold" lengthAdjust="spacing" textLength="21" x="1720.5" y="31.9951">Db</text></g><!--cluster 86a1b907d54bf7010394bf316e183e67--><g id="cluster_86a1b907d54bf7010394bf316e183e67"><polygon fill="none" points="16,32.29,26,22.29,188,22.29,188,317.08,178,327.08,16,327.08,16,32.29" style="stroke:#181818;stroke-width:1.0;"/><line style="stroke:#181818;stroke-width:1.0;" x1="178" x2="188" y1="32.29" y2="22.29"/><line style="stroke:#181818;stroke-width:1.0;" x1="16" x2="178" y1="32.29" y2="32.29"/><line style="stroke:#181818;stroke-width:1.0;" x1="178" x2="178" y1="32.29" y2="327.08"/><text fill="#000000" font-family="sans-serif" font-size="14" font-weight="bold" lengthAdjust="spacing" textLength="43" x="76.5" y="48.2851">Redis</text></g><!--cluster 2567a5ec9705eb7ac2c984033e06189d--><g id="cluster_2567a5ec9705eb7ac2c984033e06189d"><polygon fill="none" points="872,32.29,882,22.29,1508,22.29,1508,554.37,1498,564.37,872,564.37,872,32.29" style="stroke:#181818;stroke-width:1.0;"/><line style="stroke:#181818;stroke-width:1.0;" x1="1498" x2="1508" y1="32.29" y2="22.29"/><line style="stroke:#181818;stroke-width:1.0;" x1="872" x2="1498" y1="32.29" y2="32.29"/><line style="stroke:#181818;stroke-width:1.0;" x1="1498" x2="1498" y1="32.29" y2="564.37"/><text fill="#000000" font-family="sans-serif" font-size="14" font-weight="bold" lengthAdjust="spacing" textLength="35" x="1168.5" y="48.2851">Web</text></g><!--cluster c555f7f790ce1d27fdad83403b682479--><g id="cluster_c555f7f790ce1d27fdad83403b682479"><polygon fill="none" points="212,40.44,222,30.44,848,30.44,848,554.37,838,564.37,212,564.37,212,40.44" style="stroke:#181818;stroke-width:1.0;"/><line style="stroke:#181818;stroke-width:1.0;" x1="838" x2="848" y1="40.44" y2="30.44"/><line style="stroke:#181818;stroke-width:1.0;" x1="212" x2="838" y1="40.44" y2="40.44"/><line style="stroke:#181818;stroke-width:1.0;" x1="838" x2="838" y1="40.44" y2="564.37"/><text fill="#000000" font-family="sans-serif" font-size="14" font-weight="bold" lengthAdjust="spacing" textLength="111" x="470.5" y="56.4351">Db_migrations</text></g><!--entity 355aeb7ac3f8fa43e8d94fbf0e4b8d6c--><g id="elem_355aeb7ac3f8fa43e8d94fbf0e4b8d6c"><rect fill="#F1F1F1" height="144.0781" rx="2.5" ry="2.5" style="stroke:#181818;stroke-width:0.5;" width="375" x="1547.5" y="46"/><rect fill="#F1F1F1" height="10" style="stroke:#181818;stroke-width:0.5;" width="15" x="1902.5" y="51"/><rect fill="#F1F1F1" height="2" style="stroke:#181818;stroke-width:0.5;" width="4" x="1900.5" y="53"/><rect fill="#F1F1F1" height="2" style="stroke:#181818;stroke-width:0.5;" width="4" x="1900.5" y="57"/><text fill="#000000" font-family="sans-serif" font-size="14" font-weight="bold" lengthAdjust="spacing" textLength="20" x="1562.5" y="78.9951">db</text><text fill="#000000" font-family="sans-serif" font-size="14" lengthAdjust="spacing" textLength="4" x="1562.5" y="95.292">&#160;</text><text fill="#000000" font-family="sans-serif" font-size="14" lengthAdjust="spacing" textLength="113" x="1562.5" y="111.5889">image: postgres</text><text fill="#000000" font-family="sans-serif" font-size="14" lengthAdjust="spacing" textLength="275" x="1562.5" y="127.8857">environment: POSTGRES_DB=postgres</text><text fill="#000000" font-family="sans-serif" font-size="14" lengthAdjust="spacing" textLength="292" x="1562.5" y="144.1826">environment: POSTGRES_USER=postgres</text><text fill="#000000" font-family="sans-serif" font-size="14" lengthAdjust="spacing" textLength="335" x="1562.5" y="160.4795">environment: POSTGRES_PASSWORD=postgres</text><text fill="#000000" font-family="sans-serif" font-size="14" lengthAdjust="spacing" textLength="4" x="1562.5" y="176.7764">&#160;</text></g><!--entity 3c217ea98bfddc0f9ff1c849de325d93--><g id="elem_3c217ea98bfddc0f9ff1c849de325d93"><rect fill="#F1F1F1" height="111.4844" rx="2.5" ry="2.5" style="stroke:#181818;stroke-width:0.5;" width="139" x="32.5" y="62.29"/><rect fill="#F1F1F1" height="10" style="stroke:#181818;stroke-width:0.5;" width="15" x="151.5" y="67.29"/><rect fill="#F1F1F1" height="2" style="stroke:#181818;stroke-width:0.5;" width="4" x="149.5" y="69.29"/><rect fill="#F1F1F1" height="2" style="stroke:#181818;stroke-width:0.5;" width="4" x="149.5" y="73.29"/><text fill="#000000" font-family="sans-serif" font-size="14" font-weight="bold" lengthAdjust="spacing" textLength="40" x="47.5" y="95.2851">redis</text><text fill="#000000" font-family="sans-serif" font-size="14" lengthAdjust="spacing" textLength="4" x="47.5" y="111.582">&#160;</text><text fill="#000000" font-family="sans-serif" font-size="14" lengthAdjust="spacing" textLength="85" x="47.5" y="127.8789">image: redis</text><text fill="#000000" font-family="sans-serif" font-size="14" lengthAdjust="spacing" textLength="99" x="47.5" y="144.1757">restart: always</text><text fill="#000000" font-family="sans-serif" font-size="14" lengthAdjust="spacing" textLength="4" x="47.5" y="160.4726">&#160;</text></g><!--entity 09876deab5af8de0c168ec3aa053742d--><g id="elem_09876deab5af8de0c168ec3aa053742d"><ellipse cx="102" cy="282.08" fill="#F1F1F1" rx="8" ry="8" style="stroke:#181818;stroke-width:0.5;"/><text fill="#000000" font-family="sans-serif" font-size="14" lengthAdjust="spacing" textLength="36" x="84" y="312.0751">6379</text></g><!--entity 04a565d19766ebe0348853b17c395bd1--><g id="elem_04a565d19766ebe0348853b17c395bd1"><rect fill="#F1F1F1" height="111.4844" rx="2.5" ry="2.5" style="stroke:#181818;stroke-width:0.5;" width="603" x="888.5" y="62.29"/><rect fill="#F1F1F1" height="10" style="stroke:#181818;stroke-width:0.5;" width="15" x="1471.5" y="67.29"/><rect fill="#F1F1F1" height="2" style="stroke:#181818;stroke-width:0.5;" width="4" x="1469.5" y="69.29"/><rect fill="#F1F1F1" height="2" style="stroke:#181818;stroke-width:0.5;" width="4" x="1469.5" y="73.29"/><text fill="#000000" font-family="sans-serif" font-size="14" font-weight="bold" lengthAdjust="spacing" textLength="34" x="903.5" y="95.2851">web</text><text fill="#000000" font-family="sans-serif" font-size="14" lengthAdjust="spacing" textLength="4" x="903.5" y="111.582">&#160;</text><text fill="#000000" font-family="sans-serif" font-size="14" lengthAdjust="spacing" textLength="563" x="903.5" y="127.8789">environment: DATABASE_URL=postgres://postgres:postgres@db:5432/postgres</text><text fill="#000000" font-family="sans-serif" font-size="14" lengthAdjust="spacing" textLength="308" x="903.5" y="144.1757">environment: REDIS_URL=redis://redis:6379</text><text fill="#000000" font-family="sans-serif" font-size="14" lengthAdjust="spacing" textLength="4" x="903.5" y="160.4726">&#160;</text></g><!--entity fd433df176955d196b161b0a41a19970--><g id="elem_fd433df176955d196b161b0a41a19970"><ellipse cx="1359" cy="282.08" fill="#F1F1F1" rx="8" ry="8" style="stroke:#181818;stroke-width:0.5;"/><text fill="#000000" font-family="sans-serif" font-size="14" lengthAdjust="spacing" textLength="36" x="1341" y="312.0751">8000</text></g><!--entity 874f49994a1f56f4ba4a4da89f34713d--><g id="elem_874f49994a1f56f4ba4a4da89f34713d"><rect fill="#F1F1F1" height="39.2969" rx="2.5" ry="2.5" style="stroke:#181818;stroke-width:0.5;" width="61" x="1101.5" y="509.08"/><polygon fill="#F1F1F1" points="1145.5,514.08,1145.5,528.08,1157.5,528.08,1157.5,520.08,1151.5,514.08,1145.5,514.08" style="stroke:#181818;stroke-width:0.5;"/><line style="stroke:#181818;stroke-width:0.5;" x1="1151.5" x2="1151.5" y1="514.08" y2="520.08"/><line style="stroke:#181818;stroke-width:0.5;" x1="1157.5" x2="1151.5" y1="520.08" y2="520.08"/><text fill="#000000" font-family="sans-serif" font-size="14" lengthAdjust="spacing" textLength="31" x="1111.5" y="535.0751">/app</text></g><!--entity 35dad3639cbee1e1dbecce2550aa3c85--><g id="elem_35dad3639cbee1e1dbecce2550aa3c85"><rect fill="#F1F1F1" height="95.1875" rx="2.5" ry="2.5" style="stroke:#181818;stroke-width:0.5;" width="603" x="228.5" y="70.44"/><rect fill="#F1F1F1" height="10" style="stroke:#181818;stroke-width:0.5;" width="15" x="811.5" y="75.44"/><rect fill="#F1F1F1" height="2" style="stroke:#181818;stroke-width:0.5;" width="4" x="809.5" y="77.44"/><rect fill="#F1F1F1" height="2" style="stroke:#181818;stroke-width:0.5;" width="4" x="809.5" y="81.44"/><text fill="#000000" font-family="sans-serif" font-size="14" font-weight="bold" lengthAdjust="spacing" textLength="110" x="243.5" y="103.4351">db_migrations</text><text fill="#000000" font-family="sans-serif" font-size="14" lengthAdjust="spacing" textLength="4" x="243.5" y="119.732">&#160;</text><text fill="#000000" font-family="sans-serif" font-size="14" lengthAdjust="spacing" textLength="563" x="243.5" y="136.0289">environment: DATABASE_URL=postgres://postgres:postgres@db:5432/postgres</text><text fill="#000000" font-family="sans-serif" font-size="14" lengthAdjust="spacing" textLength="4" x="243.5" y="152.3257">&#160;</text></g><!--entity 036598203e8c49c58ae6914e0d296c42--><g id="elem_036598203e8c49c58ae6914e0d296c42"><rect fill="#F1F1F1" height="39.2969" rx="2.5" ry="2.5" style="stroke:#181818;stroke-width:0.5;" width="61" x="700.5" y="509.08"/><polygon fill="#F1F1F1" points="744.5,514.08,744.5,528.08,756.5,528.08,756.5,520.08,750.5,514.08,744.5,514.08" style="stroke:#181818;stroke-width:0.5;"/><line style="stroke:#181818;stroke-width:0.5;" x1="750.5" x2="750.5" y1="514.08" y2="520.08"/><line style="stroke:#181818;stroke-width:0.5;" x1="756.5" x2="750.5" y1="520.08" y2="520.08"/><text fill="#000000" font-family="sans-serif" font-size="14" lengthAdjust="spacing" textLength="31" x="710.5" y="535.0751">/app</text></g><!--entity c896127ab1831787795a6fc7c8465c9a--><g id="elem_c896127ab1831787795a6fc7c8465c9a"><ellipse cx="102" cy="419.08" fill="#F1F1F1" rx="8" ry="8" style="stroke:#181818;stroke-width:0.5;"/><text fill="#000000" font-family="sans-serif" font-size="14" lengthAdjust="spacing" textLength="36" x="84" y="449.0751">6379</text></g><!--entity 1624c420083928ef3e240dd88f2e52f0--><g id="elem_1624c420083928ef3e240dd88f2e52f0"><ellipse cx="1551" cy="419.08" fill="#F1F1F1" rx="8" ry="8" style="stroke:#181818;stroke-width:0.5;"/><text fill="#000000" font-family="sans-serif" font-size="14" lengthAdjust="spacing" textLength="36" x="1533" y="449.0751">8000</text></g><!--entity 58b9e70b65a77700ba66e9c64d6b9f89--><g id="elem_58b9e70b65a77700ba66e9c64d6b9f89"><rect fill="#F1F1F1" height="39.2969" rx="2.5" ry="2.5" style="stroke:#181818;stroke-width:0.5;" width="34" x="1002" y="627.37"/><polygon fill="#F1F1F1" points="1019,632.37,1019,646.37,1031,646.37,1031,638.37,1025,632.37,1019,632.37" style="stroke:#181818;stroke-width:0.5;"/><line style="stroke:#181818;stroke-width:0.5;" x1="1025" x2="1025" y1="632.37" y2="638.37"/><line style="stroke:#181818;stroke-width:0.5;" x1="1031" x2="1025" y1="638.37" y2="638.37"/><text fill="#000000" font-family="sans-serif" font-size="14" lengthAdjust="spacing" textLength="4" x="1012" y="653.3651">.</text></g><!--link 3c217ea98bfddc0f9ff1c849de325d93 to 09876deab5af8de0c168ec3aa053742d--><g id="link_3c217ea98bfddc0f9ff1c849de325d93_09876deab5af8de0c168ec3aa053742d"><path codeLine="46" d="M102,173.9 C102,210.62 102,255.38 102,273.21 " fill="none" id="3c217ea98bfddc0f9ff1c849de325d93-09876deab5af8de0c168ec3aa053742d" style="stroke:#181818;stroke-width:1.0;"/></g><!--link 09876deab5af8de0c168ec3aa053742d to c896127ab1831787795a6fc7c8465c9a--><g id="link_09876deab5af8de0c168ec3aa053742d_c896127ab1831787795a6fc7c8465c9a"><path codeLine="47" d="M102,290.72 C102,314.37 102,386.19 102,410.18 " fill="none" id="09876deab5af8de0c168ec3aa053742d-c896127ab1831787795a6fc7c8465c9a" style="stroke:#181818;stroke-width:1.0;"/></g><!--link 04a565d19766ebe0348853b17c395bd1 to fd433df176955d196b161b0a41a19970--><g id="link_04a565d19766ebe0348853b17c395bd1_fd433df176955d196b161b0a41a19970"><path codeLine="48" d="M1247.22,173.9 C1285.52,210.62 1332.2,255.38 1350.79,273.21 " fill="none" id="04a565d19766ebe0348853b17c395bd1-fd433df176955d196b161b0a41a19970" style="stroke:#181818;stroke-width:1.0;"/></g><!--link fd433df176955d196b161b0a41a19970 to 1624c420083928ef3e240dd88f2e52f0--><g id="link_fd433df176955d196b161b0a41a19970_1624c420083928ef3e240dd88f2e52f0"><path codeLine="49" d="M1367.75,289.23 C1399.73,311.72 1510.13,389.34 1542.2,411.89 " fill="none" id="fd433df176955d196b161b0a41a19970-1624c420083928ef3e240dd88f2e52f0" style="stroke:#181818;stroke-width:1.0;"/></g><!--link 874f49994a1f56f4ba4a4da89f34713d to 58b9e70b65a77700ba66e9c64d6b9f89--><g id="link_874f49994a1f56f4ba4a4da89f34713d_58b9e70b65a77700ba66e9c64d6b9f89"><path codeLine="50" d="M1113.59,548.67 C1092.2,570.68 1057.18,606.72 1036.29,628.23 " fill="none" id="874f49994a1f56f4ba4a4da89f34713d-58b9e70b65a77700ba66e9c64d6b9f89" style="stroke:#181818;stroke-width:1.0;"/><text fill="#000000" font-family="sans-serif" font-size="13" lengthAdjust="spacing" textLength="14" x="1083" y="593.4369">rw</text></g><!--link 04a565d19766ebe0348853b17c395bd1 to 874f49994a1f56f4ba4a4da89f34713d--><g id="link_04a565d19766ebe0348853b17c395bd1_874f49994a1f56f4ba4a4da89f34713d"><path codeLine="51" d="M1182.18,174.15 C1169.04,266.75 1143.9828,443.2995 1135.5628,502.6495 " fill="none" id="04a565d19766ebe0348853b17c395bd1-to-874f49994a1f56f4ba4a4da89f34713d" style="stroke:#181818;stroke-width:1.0;stroke-dasharray:7.0,7.0;"/><polygon fill="#181818" points="1134.72,508.59,1139.9445,500.2411,1135.4223,503.6396,1132.0238,499.1174,1134.72,508.59" style="stroke:#181818;stroke-width:1.0;"/><text fill="#000000" font-family="sans-serif" font-size="13" lengthAdjust="spacing" textLength="23" x="1159" y="356.1469">use</text></g><!--link 036598203e8c49c58ae6914e0d296c42 to 58b9e70b65a77700ba66e9c64d6b9f89--><g id="link_036598203e8c49c58ae6914e0d296c42_58b9e70b65a77700ba66e9c64d6b9f89"><path codeLine="52" d="M761.82,542.17 C822.19,566.55 954.24,619.87 1001.63,639.01 " fill="none" id="036598203e8c49c58ae6914e0d296c42-58b9e70b65a77700ba66e9c64d6b9f89" style="stroke:#181818;stroke-width:1.0;"/><text fill="#000000" font-family="sans-serif" font-size="13" lengthAdjust="spacing" textLength="14" x="893" y="593.4369">rw</text></g><!--link 35dad3639cbee1e1dbecce2550aa3c85 to 036598203e8c49c58ae6914e0d296c42--><g id="link_35dad3639cbee1e1dbecce2550aa3c85_036598203e8c49c58ae6914e0d296c42"><path codeLine="53" d="M553.06,165.92 C597.19,255.66 689.2315,442.8062 719.1215,503.5662 " fill="none" id="35dad3639cbee1e1dbecce2550aa3c85-to-036598203e8c49c58ae6914e0d296c42" style="stroke:#181818;stroke-width:1.0;stroke-dasharray:7.0,7.0;"/><polygon fill="#181818" points="721.77,508.95,721.3865,499.1086,719.5629,504.4635,714.2081,502.6399,721.77,508.95" style="stroke:#181818;stroke-width:1.0;"/><text fill="#000000" font-family="sans-serif" font-size="13" lengthAdjust="spacing" textLength="23" x="649" y="356.1469">use</text></g><!--SRC=[hLDTQnin47o_Nt7ugGt4rjTAMaDB4snAeP1W9-IXbB2ILi4GVs2xTKlfVwzyTZufY4AVJiVjZMPcP-Z-VhcRptxC5dVDOfcuxOr2hwLDcvnBm20q9MaqPl10qQ1HrWSDChI_cZOkvwlbWXVRLWCG1qTHPv_9QFO9JGvPi0a-sTX-QKvEKZWvQPhPdEvusAwMc-tTcZSDBxxFril5lC0CsykBwTN7oNXwEpf_LvcudeudjPdBi-dqvc8oUffhlZQ_Zq8dd6QRJgkt90EA8jY4x8GK6ij1IylIQxRkbTQef6D27t9AKMJCMKPlCB5Ma51tMjTxy6Tok_UcCDZIkZ2a-ntzxDYyUTlsh7RO4H7edKrC0IZxn29Awpbg8W7Q6PKUkT_mOKiAh2FWY4v0vx-Aw8tGceML7jDBvi8GM4WIdRKSM6ZZFUWWNTG88ScE-OwxDRqmT7HsTNP-DXtVNay-Ftev70mUZm-73oaCmMWr-FjY9kFHfsa7qlbH40xFlG4FPdWXHASj9wDroj9PX3rf6wILGP2H9B48RegJiqnns_O6j5eTDkbCDeXeI6QmsGGoP19vpDeugPyC78NR-UnkJTlPSd48GGI0xB934LacvNAYv7NnCbYlZCFNWI-VjTKO0xCiFmIEaHM08DBHmp7mpoxvdwOMg_uYNcWBw9KexIjDZU29BKh38YcqqQWY_aNQeaShbQDGKYwTTmw1R8wkXDb2H7gv3ccLAI12U8tASzQiZ4Z9-wmOL7w-Zdxt0_Y0x4ImGCuv8GALr66q9jc0sMDJBT9fEgrNeZRGeLIbLgknHwaciZRGeLIDh8MuGwcvsmxRtdhNgmlhzrE__xxQd3tUjmqNm4hA_ebTjKP7TjLBZ-p-0000]--></g></svg>