<svg xmlns="http://www.w3.org/2000/svg" xmlns:xlink="http://www.w3.org/1999/xlink" contentStyleType="text/css" height="142px" preserveAspectRatio="none" style="width:134px;height:142px;background:#FFFFFF;" version="1.1" viewBox="0 0 134 142" width="134px" zoomAndPan="magnify"><defs/><g><!--cluster 73378f9e84c28b234f2d1149b8b52262--><g id="cluster_73378f9e84c28b234f2d1149b8b52262"><path d="M8.5,6 L114.5,6 A3.75,3.75 0 0 1 117,8.5 L124,28.2969 L124.5,28.2969 A2.5,2.5 0 0 1 127,30.7969 L127,133.39 A2.5,2.5 0 0 1 124.5,135.89 L8.5,135.89 A2.5,2.5 0 0 1 6,133.39 L6,8.5 A2.5,2.5 0 0 1 8.5,6 " fill="none" style="stroke:#000000;stroke-width:1.5;"/><line style="stroke:#000000;stroke-width:1.5;" x1="6" x2="124" y1="28.2969" y2="28.2969"/><text fill="#000000" font-family="sans-serif" font-size="14" font-weight="bold" lengthAdjust="spacing" textLength="105" x="10" y="20.9951">demoproject/</text></g><!--entity 89263c773fc6416adfc326c47ce5123d--><g id="elem_89263c773fc6416adfc326c47ce5123d"><rect fill="#F1F1F1" height="78.8906" rx="2.5" ry="2.5" style="stroke:#181818;stroke-width:0.5;" width="70" x="31" y="41"/><rect fill="#F1F1F1" height="10" style="stroke:#181818;stroke-width:0.5;" width="15" x="81" y="46"/><rect fill="#F1F1F1" height="2" style="stroke:#181818;stroke-width:0.5;" width="4" x="79" y="48"/><rect fill="#F1F1F1" height="2" style="stroke:#181818;stroke-width:0.5;" width="4" x="79" y="52"/><text fill="#000000" font-family="sans-serif" font-size="14" font-weight="bold" lengthAdjust="spacing" textLength="30" x="46" y="73.9951">urls</text><text fill="#000000" font-family="sans-serif" font-size="14" lengthAdjust="spacing" textLength="4" x="46" y="90.292">&#160;</text><text fill="#000000" font-family="sans-serif" font-size="14" lengthAdjust="spacing" textLength="4" x="46" y="106.5889">&#160;</text></g><!--SRC=[1S5B3i8W403G_Po2TCd6C4FvdCLq0GCqLJvDMwE9yUw-5seTxxPzjhx27lWPrYocbDlOZ_78VDqc4KvXYQmhFZlDw2AIBfYKqZwwE2CQ55_WqVRHSx-4ysY8hQN2HYiJKc52mzfodXLI4dUGydNKKqe0ME3t1m00]--></g></svg>